# xmcd
#
# Track frame offsets:
#	150
#	15681
#	32758
#	43858
#	60733
#	81667
#	89040
#	101537
#	119628
#	130050
#	140981
#
# Disc length: 2028 seconds
#
# Revision: 0
# Processed by: cddbd v1.4PL0 Copyright (c) Steve Scherf et al.
# Submitted via: dBpowerAMP V4.0
#
DISCID=a607ea0b
DTITLE=Shovels - Driving Wheel
DYEAR=1900
DGENRE=Alt Country
TTITLE0=Kingston Prison Blues
TTITLE1=Don't Hit the Bottle
TTITLE2=Lose Lose Lose
TTITLE3=Woe is Me
TTITLE4=One Night Stand
TTITLE5=Doing What I Gotta Do
TTITLE6=Where Roses Don't Grow
TTITLE7=Unassumed Road
TTITLE8=Two White Horses
TTITLE9=Come to Me
TTITLE10=Highway 51
EXTD=
EXTT0=
EXTT1=
EXTT2=
EXTT3=
EXTT4=
EXTT5=
EXTT6=
EXTT7=
EXTT8=
EXTT9=
EXTT10=
PLAYORDER=
